HIERARCHY
ROOT Hips
{
	OFFSET 0.00000 0.00000 0.00000
	CHANNELS 6 Xposition Yposition Zposition Zrotation Yrotation Xrotation 
	JOINT LHipJoint
	{
		OFFSET 0 0 0
		CHANNELS 3 Zrotation Yrotation Xrotation
		JOINT LeftHip
		{
			OFFSET 1.65412 -1.54119 0.76744
			CHANNELS 3 Zrotation Yrotation Xrotation
			JOINT LeftKnee
			{
				OFFSET 2.19550 -6.03209 0.00000
				CHANNELS 3 Zrotation Yrotation Xrotation
				JOINT LeftAnkle
				{
					OFFSET 2.38814 -6.56138 0.00000
					CHANNELS 3 Zrotation Yrotation Xrotation
					JOINT LeftToe
					{
						OFFSET 0.17337 -0.47632 1.75875
						CHANNELS 3 Zrotation Yrotation Xrotation
						End Site
						{
							OFFSET 0.00000 -0.00000 0.92050
						}
					}
				}
			}
		}
	}
	JOINT RHipJoint
	{
		OFFSET 0 0 0
		CHANNELS 3 Zrotation Yrotation Xrotation
		JOINT RightHip
		{
			OFFSET -1.40291 -1.54119 0.76744
			CHANNELS 3 Zrotation Yrotation Xrotation
			JOINT RightKnee
			{
				OFFSET -2.22156 -6.10370 0.00000
				CHANNELS 3 Zrotation Yrotation Xrotation
				JOINT RightAnkle
				{
					OFFSET -2.46840 -6.78188 0.00000
					CHANNELS 3 Zrotation Yrotation Xrotation
					JOINT RightToe
					{
						OFFSET -0.15659 -0.43024 1.84117
						CHANNELS 3 Zrotation Yrotation Xrotation
						End Site
						{
							OFFSET -0.00000 -0.00000 0.95587
						}
					}
				}
			}
		}
	}
	JOINT lowerback
	{
		OFFSET 0 0 0
		CHANNELS 3 Zrotation Yrotation Xrotation
		JOINT Chest
		{
			OFFSET -0.01936 1.82120 -0.32061
			CHANNELS 3 Zrotation Yrotation Xrotation
			JOINT Chest2
			{
				OFFSET -0.00532 1.85767 -0.00071
				CHANNELS 3 Zrotation Yrotation Xrotation
				JOINT lowerneck
				{
					OFFSET 0 0 0
					CHANNELS 3 Zrotation Yrotation Xrotation
					JOINT Neck
					{
						OFFSET -0.10687 1.58194 0.10810
						CHANNELS 3 Zrotation Yrotation Xrotation
						JOINT Head
						{
							OFFSET 0.15346 1.57382 -0.25612
							CHANNELS 3 Zrotation Yrotation Xrotation
							End Site
							{
								OFFSET 0.05334 1.61251 -0.10513
							}
						}
					}
				}
				JOINT LeftCollar
				{
					OFFSET 0 0 0
					CHANNELS 3 Zrotation Yrotation Xrotation
					JOINT LeftShoulder
					{
						OFFSET 2.85758 0.89498 -0.01485
CHANNELS 3 Zrotation Xrotation Yrotation
						JOINT LeftElbow
						{
OFFSET 0 -4.791850 -0.000000
CHANNELS 3 Zrotation Xrotation Yrotation
							JOINT LeftWrist
							{
OFFSET 0 -2.655530 0.000000
CHANNELS 3 Zrotation Xrotation Yrotation
								JOINT lhand
								{
									OFFSET 0 0 0
CHANNELS 3 Zrotation Xrotation Yrotation
									JOINT LFingers
									{
OFFSET 0 -0.743900 0.000000
CHANNELS 3 Zrotation Xrotation Yrotation
										End Site
										{
OFFSET 0 -0.599750 0.000000
										}
									}
								}
								JOINT LThumb
								{
OFFSET 0 0.000000 0.000000
CHANNELS 3 Zrotation Xrotation Yrotation
									End Site
									{
OFFSET 0 -0.608910 0.608910
									}
								}
							}
						}
					}
				}
				JOINT RightCollar
				{
					OFFSET 0 0 0
					CHANNELS 3 Zrotation Yrotation Xrotation
					JOINT RightShoulder
					{
						OFFSET -2.93906 0.88031 0.02490
CHANNELS 3 Zrotation Xrotation Yrotation
						JOINT RightElbow
						{
OFFSET 0 -4.772540 -0.000000
CHANNELS 3 Zrotation Xrotation Yrotation
							JOINT RightWrist
							{
OFFSET 0 -2.759950 -0.000000
CHANNELS 3 Zrotation Xrotation Yrotation
								JOINT rhand
								{
									OFFSET 0 0 0
CHANNELS 3 Zrotation Xrotation Yrotation
									JOINT RFingers
									{
OFFSET 0 -0.701620 0.000000
CHANNELS 3 Zrotation Xrotation Yrotation
										End Site
										{
OFFSET 0 -0.565660 0.000000
										}
									}
								}
								JOINT RThumb
								{
OFFSET 0 0.000000 0.000000
CHANNELS 3 Zrotation Xrotation Yrotation
									End Site
									{
OFFSET 0 -0.574300 0.574300
									}
								}
							}
						}
					}
				}
			}
		}
	}
}
MOTION
Frames: 7
Frame Time: 0.008333333333333333
0.362932 15.772790 -1.735529 -3.293646 -11.952389 -5.269364 0.000000 0.000000 0.000000 -13.149931 -1.984981 -6.224244 2.488407 9.816774 28.385409 0.680831 5.811104 -18.770298 0.516044 -4.604137 -12.782799 0.000000 0.000000 0.000000 21.505351 16.536884 -4.381884 -2.114357 -9.100318 26.109623 -0.181964 -4.148020 -10.670851 -0.150593 2.500850 -6.891963 -19.487692 0.210284 18.868028 -13.565619 -4.986237 2.706969 -3.063660 -2.121606 -7.350993 -15.636289 -10.666353 -8.555806 21.144301 -15.047347 7.044550 7.878096 -6.878570 6.456235 0.000000 0.000000 0.000000 38.419603 -34.560324 -17.109117 128.205787 -53.693944 92.386418 -9.854551 -14.446546 -29.773597 0.000000 0.000000 0.000000 -7.125000 0.000000 0.000000 -42.518348 54.466085 11.445023 0.000000 0.000000 0.000000 -39.364998 -18.617328 -13.669171 -100.975753 -59.539864 -69.490621 22.962284 11.679715 -7.550939 0.000000 0.000000 0.000000 7.125000 0.000000 0.000000 33.783069 21.347882 23.571485
0.471597 15.790150 -1.803748 -3.272001 -13.443857 -4.384433 0.000000 0.000000 0.000000 -13.434503 -1.789907 -7.334764 2.483079 9.807039 28.354146 0.647331 6.607872 -19.019222 0.463838 -4.368452 -12.115697 0.000000 0.000000 0.000000 20.980403 17.823413 -5.356040 -2.055233 -8.980226 25.733417 -0.140641 -3.949911 -9.653799 -0.228514 3.076635 -8.492180 -19.146544 0.595665 19.769792 -13.414422 -4.580358 3.182854 -3.143530 -1.956533 -7.340602 -15.619858 -10.614764 -8.553881 23.072952 -15.521384 8.203940 8.495523 -6.999718 7.104868 0.000000 0.000000 0.000000 38.002787 -33.518182 -17.168003 127.296482 -54.029298 91.652006 -9.244373 -13.812264 -29.451247 0.000000 0.000000 0.000000 -7.125000 0.000000 0.000000 -41.701064 54.334618 11.014072 0.000000 0.000000 0.000000 -37.233335 -17.787645 -10.200567 -101.602524 -59.485161 -70.030746 16.990184 8.790041 -7.503235 0.000000 0.000000 0.000000 7.125000 0.000000 0.000000 30.404939 21.989942 19.711116
0.581061 15.800699 -1.876930 -2.971692 -14.809915 -3.684228 0.000000 0.000000 0.000000 -14.038458 -1.684302 -8.419960 2.488550 9.817083 28.386384 0.597650 7.449432 -19.179478 0.322434 -3.649937 -10.093761 0.000000 0.000000 0.000000 20.124251 18.984233 -6.369932 -2.021402 -8.910588 25.515915 -0.116117 -3.609446 -8.793935 -0.278106 3.391750 -9.371428 -19.242724 1.017665 21.056351 -12.968097 -4.303828 3.630362 -2.634836 -1.820415 -7.495349 -15.205919 -10.664045 -8.328642 23.505852 -15.988301 9.421050 8.540802 -7.169989 7.553868 0.000000 0.000000 0.000000 36.841734 -31.827559 -17.494921 126.139873 -54.438346 90.713453 -9.051776 -13.088948 -29.198254 0.000000 0.000000 0.000000 -7.125000 0.000000 0.000000 -41.315110 54.174999 10.707692 0.000000 0.000000 0.000000 -35.291953 -17.502359 -6.590974 -102.236519 -59.426550 -70.576786 13.373767 8.994548 -7.945159 0.000000 0.000000 0.000000 7.125000 0.000000 0.000000 28.099094 21.825616 17.861566
0.691246 15.804690 -1.948319 -3.340485 -15.933147 -3.179537 0.000000 0.000000 0.000000 -13.905231 -1.571907 -9.482108 2.598414 10.014612 29.024156 0.587588 7.941027 -19.493366 0.280597 -3.407161 -9.414468 0.000000 0.000000 0.000000 20.046056 19.611409 -6.853834 -1.911901 -8.680014 24.799338 -0.087010 -3.307767 -7.781888 -0.350848 3.803786 -10.525581 -18.237674 1.306705 22.439697 -12.423383 -3.829314 4.653974 -2.624942 -1.670079 -7.109120 -14.777920 -10.864943 -8.799322 23.403559 -16.677602 11.522934 8.347116 -7.380957 8.411738 0.000000 0.000000 0.000000 36.414609 -31.621865 -18.271996 124.092909 -55.116719 89.041179 -9.990951 -12.966930 -28.386157 0.000000 0.000000 0.000000 -7.125000 0.000000 0.000000 -41.463298 53.368158 9.867261 0.000000 0.000000 0.000000 -33.400859 -18.746919 -3.811457 -101.970147 -59.451618 -70.347398 11.862395 8.775082 -7.291319 0.000000 0.000000 0.000000 7.125000 0.000000 0.000000 27.286075 22.493186 16.713250
0.803360 15.802949 -2.021453 -3.323029 -16.170306 -3.096569 0.000000 0.000000 0.000000 -14.286427 -1.894530 -10.165675 2.677753 10.154158 29.477341 0.522376 8.495301 -19.301106 0.166247 -2.626578 -7.240750 0.000000 0.000000 0.000000 19.537195 19.896779 -7.147725 -1.853979 -8.555107 24.413302 -0.065843 -3.309826 -7.186298 -0.326839 3.672709 -10.157881 -17.280853 1.664243 24.151860 -11.659674 -3.235869 6.092523 -2.390551 -1.483045 -6.388335 -14.988813 -11.070486 -7.632041 23.452047 -17.293862 12.707929 8.385196 -7.719228 8.737170 0.000000 0.000000 0.000000 35.202648 -32.325946 -21.242687 121.462646 -55.907100 86.873054 -8.543450 -11.901631 -27.024155 0.000000 0.000000 0.000000 -7.125000 0.000000 0.000000 -39.114293 52.555154 8.302241 0.000000 0.000000 0.000000 -32.279968 -20.119349 -1.940994 -101.314448 -59.510651 -69.782523 11.338726 8.676369 -7.486699 0.000000 0.000000 0.000000 7.125000 0.000000 0.000000 26.911135 22.339587 16.530555
0.913842 15.795267 -2.094324 -3.460487 -15.066271 -3.132602 0.000000 0.000000 0.000000 -14.537755 -2.567293 -10.998326 2.790865 10.348584 30.112956 0.450535 8.503083 -18.522062 0.193152 -2.830016 -7.805871 0.000000 0.000000 0.000000 19.101630 19.540376 -7.318563 -1.831744 -8.506363 24.262927 -0.045165 -3.955804 -7.247699 -0.351782 3.810095 -10.542983 -15.947290 1.525583 25.994689 -10.297445 -2.960890 8.451800 -1.604449 -1.524375 -4.618155 -14.553183 -11.192424 -8.737072 21.760032 -17.519532 15.443677 7.676791 -7.711437 9.675059 0.000000 0.000000 0.000000 33.940765 -34.182668 -24.055221 117.464571 -56.947438 83.541096 -6.543777 -11.749323 -27.540412 0.000000 0.000000 0.000000 -7.125000 0.000000 0.000000 -37.742656 53.325929 8.707051 0.000000 0.000000 0.000000 -32.598321 -22.945122 -0.028605 -100.239792 -59.599969 -68.856007 10.119669 8.961578 -7.327824 0.000000 0.000000 0.000000 7.125000 0.000000 0.000000 26.158749 22.533697 15.817139
1.020664 15.786287 -2.169486 -3.782200 -13.305585 -2.941099 0.000000 0.000000 0.000000 -14.572204 -3.569430 -12.256354 2.946656 10.608159 30.969424 0.405646 8.055645 -17.577277 0.214211 -2.979464 -8.221519 0.000000 0.000000 0.000000 18.724998 18.951239 -7.582772 -1.774366 -8.379380 23.872431 -0.009278 -4.877227 -7.269606 -0.357858 3.842614 -10.634358 -13.911891 1.427033 27.963479 -8.365118 -2.469405 10.710933 -0.674919 -1.432897 -3.049211 -13.909839 -11.281907 -9.232227 18.804699 -17.759059 20.146954 6.551865 -7.784381 11.078132 0.000000 0.000000 0.000000 30.787076 -36.066452 -28.017495 113.883941 -57.730408 80.526455 -8.202373 -10.917210 -28.143523 0.000000 0.000000 0.000000 -7.125000 0.000000 0.000000 -39.693079 53.505681 9.470277 0.000000 0.000000 0.000000 -33.454736 -24.827892 1.451337 -99.524689 -59.654426 -68.239046 11.394160 9.016637 -6.782693 0.000000 0.000000 0.000000 7.125000 0.000000 0.000000 27.094670 22.975949 16.215031
